<?xml version="1.0" encoding="utf-8"?>
<!-- Generator: Adobe Illustrator 24.3.0, SVG Export Plug-In . SVG Version: 6.00 Build 0)  -->
<svg version="1.1" id="Layer_1" xmlns="http://www.w3.org/2000/svg" xmlns:xlink="http://www.w3.org/1999/xlink" x="0px" y="0px"
	 viewBox="0 0 512 512" style="enable-background:new 0 0 512 512;" xml:space="preserve">
<g>
	<circle cx="190.6" cy="197.1" r="89.2"/>
	<polygon points="300.2,318 210.2,318 171,318 81.1,318 34.6,464 171,464 210.2,464 346.6,464 	"/>
</g>
<path d="M476.9,77.2l-81.2-32.1l-81.2,32.1c-0.5,6.3-0.8,15.1,0,25.4c1.1,13.3,3.8,42.2,23.4,70.9c17.4,25.4,39.6,38.5,51.8,44.5
	l6.1,2.4l6.1-2.4c12.2-6,34.4-19,51.8-44.5c19.6-28.7,22.3-57.6,23.4-70.9C477.7,92.2,477.4,83.5,476.9,77.2z"/>
</svg>
