<?xml version="1.0" encoding="utf-8"?>
<!-- Generator: Adobe Illustrator 24.3.0, SVG Export Plug-In . SVG Version: 6.00 Build 0)  -->
<svg version="1.1" id="Layer_1" xmlns="http://www.w3.org/2000/svg" xmlns:xlink="http://www.w3.org/1999/xlink" x="0px" y="0px"
	 viewBox="0 0 512 512" style="enable-background:new 0 0 512 512;" xml:space="preserve">
<g>
	<path d="M256,136.8c-67.4,0-122.3,53.5-122.3,119.2c0,65.7,54.9,119.2,122.3,119.2S378.3,321.7,378.3,256
		C378.3,190.3,323.4,136.8,256,136.8z M256,362.4c-60.4,0-109.6-47.8-109.6-106.4c0-58.6,48.9-106.2,109.2-106.4V256l0,0l85.9,66.5
		C320.4,347.9,289,362.6,256,362.4z"/>
	<path d="M372.5,31.2C294.8,31.2,256,96.9,256,96.9s-38.8-65.7-116.5-65.7c-37.1,0-107.8,33.7-107.8,125.1
		C31.7,317.6,256,480.8,256,480.8s224.2-163.2,224.2-324.4C480.2,64.9,409.6,31.2,372.5,31.2z M256,387.9
		c-74.4,0-135-59.2-135-131.9c0-72.7,60.6-131.9,135-131.9v0c74.4,0,135,59.2,135,131.9C391,328.7,330.4,387.9,256,387.9z"/>
</g>
</svg>
